<svg xmlns="http://www.w3.org/2000/svg" xmlns:xlink="http://www.w3.org/1999/xlink" width="500" zoomAndPan="magnify" viewBox="0 0 375 374.999991" height="500" preserveAspectRatio="xMidYMid meet" version="1.2"><defs><clipPath id="bad90b7bc3"><path d="M 26 108.636719 L 246 108.636719 L 246 317.886719 L 26 317.886719 Z M 26 108.636719 "/></clipPath><clipPath id="5a5db7793c"><path d="M 244.257812 135.921875 L 246.363281 135.921875 L 246.363281 137.691406 L 244.257812 137.691406 Z M 244.257812 135.921875 "/></clipPath><clipPath id="30d42618a0"><path d="M 246.324219 136.472656 C 245.433594 138.03125 244.546875 137.695312 244.324219 137.472656 C 244.210938 137.140625 244.324219 136.25 244.65625 136.027344 C 244.878906 135.804688 246.101562 136.027344 246.101562 136.027344 "/></clipPath></defs><g id="4257567619"><rect x="0" width="375" y="0" height="374.999991" style="fill:#ffffff;fill-opacity:1;stroke:none;"/><rect x="0" width="375" y="0" height="374.999991" style="fill:#ffffff;fill-opacity:1;stroke:none;"/><g clip-rule="nonzero" clip-path="url(#bad90b7bc3)"><path style=" stroke:none;fill-rule:nonzero;fill:#00bf63;fill-opacity:1;" d="M 234.484375 150.265625 C 221.40625 142.121094 194.246094 139.746094 187.460938 142.121094 C 187.460938 142.121094 188.289062 137.546875 195.425781 138.738281 C 195.425781 138.738281 189.292969 135.074219 179.617188 140.835938 C 169.9375 146.601562 161.960938 154.75 152.171875 152.003906 C 142.386719 149.257812 140.804688 133.25 141.078125 127.175781 C 141.351562 121.105469 141.171875 126.902344 141.171875 126.902344 C 141.171875 126.902344 146.023438 131.753906 145.835938 133.859375 C 145.835938 133.859375 146.933594 129.101562 144.554688 125.53125 C 142.175781 121.960938 141.632812 121.046875 142.085938 120.960938 C 142.691406 121.007812 143.269531 121.160156 143.824219 121.414062 C 143.847656 120.589844 143.71875 119.792969 143.429688 119.023438 C 143.144531 118.253906 142.71875 117.5625 142.164062 116.957031 C 141.128906 115.960938 140.171875 114.894531 139.289062 113.761719 C 139.855469 113.582031 140.429688 113.527344 141.019531 113.589844 C 141.609375 113.652344 142.160156 113.832031 142.671875 114.128906 C 141.871094 113.570312 140.988281 113.238281 140.023438 113.121094 C 138.835938 113.121094 138.742188 108.636719 136.363281 108.910156 C 133.984375 108.636719 133.890625 113.121094 132.707031 113.121094 C 131.738281 113.238281 130.855469 113.570312 130.054688 114.128906 C 130.570312 113.832031 131.121094 113.652344 131.710938 113.589844 C 132.296875 113.527344 132.875 113.582031 133.441406 113.761719 C 132.558594 114.894531 131.597656 115.960938 130.566406 116.957031 C 130.023438 117.574219 129.621094 118.269531 129.351562 119.039062 C 129.078125 119.8125 128.964844 120.609375 129.007812 121.429688 C 129.558594 121.171875 130.136719 121.023438 130.746094 120.976562 C 131.199219 121.0625 130.652344 121.980469 128.273438 125.546875 C 125.894531 129.109375 126.992188 133.875 126.992188 133.875 C 126.808594 131.769531 131.65625 126.917969 131.65625 126.917969 C 131.65625 126.917969 131.472656 121.167969 131.75 127.191406 C 132.03125 133.210938 130.464844 149.242188 120.679688 151.988281 C 110.890625 154.734375 102.929688 146.578125 93.234375 140.828125 C 83.542969 135.082031 77.425781 138.730469 77.425781 138.730469 C 84.5625 137.539062 85.386719 142.117188 85.386719 142.117188 C 78.613281 139.738281 51.441406 142.117188 38.363281 150.257812 C 25.285156 158.398438 27.019531 164.628906 27.019531 164.628906 C 27.019531 164.628906 27.5625 158.878906 34.699219 158.3125 C 41.835938 157.746094 41.90625 167.1875 37.25 172.769531 C 35.84375 174.496094 34.738281 176.398438 33.941406 178.480469 C 33.140625 180.558594 32.6875 182.710938 32.582031 184.9375 C 32.582031 184.9375 38.257812 173.4375 49.601562 181.003906 C 60.949219 188.570312 59.023438 210.1875 59.023438 210.1875 C 82.628906 172.101562 112.917969 202.589844 112.917969 202.589844 C 104.503906 190.792969 111 179.539062 117.128906 176.335938 C 123.257812 173.128906 129.839844 177.433594 128.46875 182.285156 C 127.09375 187.132812 128.195312 195.003906 128.015625 199.027344 C 127.890625 201.433594 128.285156 203.75 129.199219 205.976562 C 129.199219 205.976562 129.386719 202.871094 130.300781 203.417969 C 130.667969 203.71875 130.96875 204.078125 131.199219 204.496094 C 132.292969 206.253906 132.867188 208.171875 132.921875 210.242188 C 133.125 215.761719 133.222656 223.472656 132.585938 229.488281 C 131.574219 237.863281 132.125 246.136719 134.230469 254.308594 C 135.96875 261.078125 140.914062 266.839844 140.179688 274.707031 C 139.445312 282.578125 138.988281 305.542969 134.324219 313.222656 C 134.324219 313.222656 138.398438 311.347656 141.230469 293.597656 C 144.058594 275.851562 142.601562 275.210938 143.699219 274.75 C 144.800781 274.289062 150.066406 314.726562 150.066406 317.914062 C 150.785156 310.332031 150.90625 302.738281 150.433594 295.136719 C 149.613281 283.515625 146.597656 274.824219 143.851562 267.414062 C 141.105469 260.003906 137.628906 250.671875 137.996094 238.671875 C 138.289062 228.933594 140.941406 214.324219 141.09375 206.671875 C 141.097656 205.648438 141.40625 204.726562 142.019531 203.90625 C 142.15625 203.710938 142.324219 203.542969 142.523438 203.402344 C 143.433594 202.855469 143.621094 205.960938 143.621094 205.960938 C 144.535156 203.734375 144.933594 201.417969 144.808594 199.011719 C 144.628906 194.988281 145.726562 187.121094 144.355469 182.269531 C 142.984375 177.417969 149.566406 173.121094 155.695312 176.320312 C 161.824219 179.519531 168.320312 190.777344 159.90625 202.578125 C 159.90625 202.578125 190.1875 172.117188 213.796875 210.171875 C 213.796875 210.171875 211.878906 188.578125 223.21875 180.992188 C 234.558594 173.402344 240.242188 184.921875 240.242188 184.921875 C 240.132812 182.695312 239.679688 180.542969 238.882812 178.464844 C 238.082031 176.382812 236.980469 174.480469 235.570312 172.753906 C 230.90625 167.171875 231 157.75 238.136719 158.296875 C 245.273438 158.84375 245.816406 164.613281 245.816406 164.613281 C 245.816406 164.613281 247.570312 158.40625 234.484375 150.265625 Z M 234.484375 150.265625 "/></g><g clip-rule="nonzero" clip-path="url(#5a5db7793c)"><g clip-rule="nonzero" clip-path="url(#30d42618a0)"><path style=" stroke:none;fill-rule:nonzero;fill:#0571d3;fill-opacity:1;" d="M 239.875 131.582031 L 250.871094 131.582031 L 250.871094 142.367188 L 239.875 142.367188 Z M 239.875 131.582031 "/></g></g><path style="fill:none;stroke-width:6;stroke-linecap:butt;stroke-linejoin:miter;stroke:#0571d3;stroke-opacity:1;stroke-miterlimit:4;" d="M 3.000795 56.668776 L 3.000795 29.835441 C 3.000795 15.012524 15.016421 3.002106 29.83413 3.002106 L 60.80809 3.002106 C 75.631008 3.002106 87.641425 15.012524 87.641425 29.835441 L 87.641425 56.668776 " transform="matrix(0.75,0,0,0.75,70.772841,49.994514)"/><g style="fill:#0571d3;fill-opacity:1;"><g transform="translate(152.064033, 124.83361)"><path style="stroke:none" d="M 2.734375 -16.046875 C 2.734375 -16.484375 2.863281 -16.84375 3.125 -17.125 C 3.394531 -17.40625 3.734375 -17.625 4.140625 -17.78125 C 4.554688 -17.9375 4.957031 -18.015625 5.34375 -18.015625 C 6.257812 -18.015625 6.945312 -17.847656 7.40625 -17.515625 C 7.863281 -17.191406 8.09375 -16.703125 8.09375 -16.046875 C 8.09375 -14.566406 8.050781 -13.242188 7.96875 -12.078125 C 7.894531 -10.921875 7.804688 -9.800781 7.703125 -8.71875 C 7.609375 -7.644531 7.519531 -6.519531 7.4375 -5.34375 C 7.351562 -4.175781 7.289062 -2.832031 7.25 -1.3125 C 7.21875 -0.695312 6.960938 -0.242188 6.484375 0.046875 C 6.015625 0.335938 5.363281 0.484375 4.53125 0.484375 C 3.769531 0.484375 3.191406 0.375 2.796875 0.15625 C 2.410156 -0.0507812 2.148438 -0.3125 2.015625 -0.625 C 1.890625 -0.945312 1.828125 -1.269531 1.828125 -1.59375 C 1.828125 -1.789062 1.851562 -2.269531 1.90625 -3.03125 C 1.957031 -3.789062 2.023438 -4.722656 2.109375 -5.828125 C 2.203125 -6.941406 2.296875 -8.117188 2.390625 -9.359375 C 2.492188 -10.597656 2.578125 -11.804688 2.640625 -12.984375 C 2.703125 -14.160156 2.734375 -15.179688 2.734375 -16.046875 Z M 2.640625 -23.203125 C 2.640625 -23.804688 2.769531 -24.335938 3.03125 -24.796875 C 3.289062 -25.253906 3.644531 -25.609375 4.09375 -25.859375 C 4.539062 -26.109375 5.035156 -26.234375 5.578125 -26.234375 C 6.515625 -26.234375 7.226562 -26.082031 7.71875 -25.78125 C 8.207031 -25.488281 8.535156 -25.132812 8.703125 -24.71875 C 8.878906 -24.3125 8.96875 -23.925781 8.96875 -23.5625 C 8.96875 -22.644531 8.65625 -21.921875 8.03125 -21.390625 C 7.414062 -20.859375 6.617188 -20.59375 5.640625 -20.59375 C 4.753906 -20.59375 4.03125 -20.8125 3.46875 -21.25 C 2.914062 -21.695312 2.640625 -22.347656 2.640625 -23.203125 Z M 2.640625 -23.203125 "/></g></g><g style="fill:#0571d3;fill-opacity:1;"><g transform="translate(162.109669, 124.83361)"><path style="stroke:none" d="M 13.671875 -25.28125 C 13.710938 -26 13.957031 -26.5 14.40625 -26.78125 C 14.851562 -27.0625 15.4375 -27.203125 16.15625 -27.203125 C 17.132812 -27.203125 17.875 -27.054688 18.375 -26.765625 C 18.875 -26.472656 19.097656 -25.925781 19.046875 -25.125 C 18.785156 -21.332031 18.566406 -17.410156 18.390625 -13.359375 C 18.222656 -9.304688 18.050781 -5.332031 17.875 -1.4375 C 17.851562 -0.757812 17.550781 -0.28125 16.96875 0 C 16.394531 0.28125 15.753906 0.421875 15.046875 0.421875 C 14.273438 0.421875 13.6875 0.269531 13.28125 -0.03125 C 12.882812 -0.332031 12.6875 -0.691406 12.6875 -1.109375 C 12.6875 -1.328125 12.695312 -1.53125 12.71875 -1.71875 C 12.738281 -1.914062 12.765625 -2.132812 12.796875 -2.375 C 12.835938 -2.613281 12.859375 -2.878906 12.859375 -3.171875 C 12.441406 -2.335938 11.945312 -1.664062 11.375 -1.15625 C 10.8125 -0.644531 10.1875 -0.265625 9.5 -0.015625 C 8.820312 0.234375 8.113281 0.359375 7.375 0.359375 C 6.238281 0.359375 5.269531 0.113281 4.46875 -0.375 C 3.664062 -0.863281 3.019531 -1.507812 2.53125 -2.3125 C 2.039062 -3.125 1.679688 -3.992188 1.453125 -4.921875 C 1.222656 -5.859375 1.109375 -6.765625 1.109375 -7.640625 C 1.109375 -8.921875 1.304688 -10.179688 1.703125 -11.421875 C 2.109375 -12.660156 2.675781 -13.773438 3.40625 -14.765625 C 4.132812 -15.753906 5.007812 -16.546875 6.03125 -17.140625 C 7.050781 -17.742188 8.195312 -18.046875 9.46875 -18.046875 C 10.070312 -18.046875 10.675781 -17.960938 11.28125 -17.796875 C 11.894531 -17.628906 12.503906 -17.375 13.109375 -17.03125 C 13.179688 -18.03125 13.242188 -19.007812 13.296875 -19.96875 C 13.347656 -20.925781 13.40625 -21.851562 13.46875 -22.75 C 13.539062 -23.65625 13.609375 -24.5 13.671875 -25.28125 Z M 6.65625 -7.828125 C 6.65625 -7.203125 6.722656 -6.597656 6.859375 -6.015625 C 7.003906 -5.441406 7.226562 -4.972656 7.53125 -4.609375 C 7.84375 -4.253906 8.234375 -4.078125 8.703125 -4.078125 C 9.179688 -4.078125 9.632812 -4.253906 10.0625 -4.609375 C 10.488281 -4.972656 10.859375 -5.429688 11.171875 -5.984375 C 11.484375 -6.535156 11.742188 -7.125 11.953125 -7.75 C 12.160156 -8.382812 12.285156 -8.976562 12.328125 -9.53125 C 12.347656 -9.632812 12.378906 -9.734375 12.421875 -9.828125 C 12.472656 -9.929688 12.550781 -10.023438 12.65625 -10.109375 L 12.828125 -12.984375 C 12.390625 -13.328125 11.988281 -13.554688 11.625 -13.671875 C 11.269531 -13.796875 10.875 -13.859375 10.4375 -13.859375 C 9.832031 -13.859375 9.238281 -13.632812 8.65625 -13.1875 C 8.082031 -12.75 7.601562 -12.082031 7.21875 -11.1875 C 6.84375 -10.300781 6.65625 -9.179688 6.65625 -7.828125 Z M 6.65625 -7.828125 "/></g></g><g style="fill:#0571d3;fill-opacity:1;"><g transform="translate(182.200941, 124.83361)"><path style="stroke:none" d="M 13.671875 -25.28125 C 13.710938 -26 13.957031 -26.5 14.40625 -26.78125 C 14.851562 -27.0625 15.4375 -27.203125 16.15625 -27.203125 C 17.132812 -27.203125 17.875 -27.054688 18.375 -26.765625 C 18.875 -26.472656 19.097656 -25.925781 19.046875 -25.125 C 18.785156 -21.332031 18.566406 -17.410156 18.390625 -13.359375 C 18.222656 -9.304688 18.050781 -5.332031 17.875 -1.4375 C 17.851562 -0.757812 17.550781 -0.28125 16.96875 0 C 16.394531 0.28125 15.753906 0.421875 15.046875 0.421875 C 14.273438 0.421875 13.6875 0.269531 13.28125 -0.03125 C 12.882812 -0.332031 12.6875 -0.691406 12.6875 -1.109375 C 12.6875 -1.328125 12.695312 -1.53125 12.71875 -1.71875 C 12.738281 -1.914062 12.765625 -2.132812 12.796875 -2.375 C 12.835938 -2.613281 12.859375 -2.878906 12.859375 -3.171875 C 12.441406 -2.335938 11.945312 -1.664062 11.375 -1.15625 C 10.8125 -0.644531 10.1875 -0.265625 9.5 -0.015625 C 8.820312 0.234375 8.113281 0.359375 7.375 0.359375 C 6.238281 0.359375 5.269531 0.113281 4.46875 -0.375 C 3.664062 -0.863281 3.019531 -1.507812 2.53125 -2.3125 C 2.039062 -3.125 1.679688 -3.992188 1.453125 -4.921875 C 1.222656 -5.859375 1.109375 -6.765625 1.109375 -7.640625 C 1.109375 -8.921875 1.304688 -10.179688 1.703125 -11.421875 C 2.109375 -12.660156 2.675781 -13.773438 3.40625 -14.765625 C 4.132812 -15.753906 5.007812 -16.546875 6.03125 -17.140625 C 7.050781 -17.742188 8.195312 -18.046875 9.46875 -18.046875 C 10.070312 -18.046875 10.675781 -17.960938 11.28125 -17.796875 C 11.894531 -17.628906 12.503906 -17.375 13.109375 -17.03125 C 13.179688 -18.03125 13.242188 -19.007812 13.296875 -19.96875 C 13.347656 -20.925781 13.40625 -21.851562 13.46875 -22.75 C 13.539062 -23.65625 13.609375 -24.5 13.671875 -25.28125 Z M 6.65625 -7.828125 C 6.65625 -7.203125 6.722656 -6.597656 6.859375 -6.015625 C 7.003906 -5.441406 7.226562 -4.972656 7.53125 -4.609375 C 7.84375 -4.253906 8.234375 -4.078125 8.703125 -4.078125 C 9.179688 -4.078125 9.632812 -4.253906 10.0625 -4.609375 C 10.488281 -4.972656 10.859375 -5.429688 11.171875 -5.984375 C 11.484375 -6.535156 11.742188 -7.125 11.953125 -7.75 C 12.160156 -8.382812 12.285156 -8.976562 12.328125 -9.53125 C 12.347656 -9.632812 12.378906 -9.734375 12.421875 -9.828125 C 12.472656 -9.929688 12.550781 -10.023438 12.65625 -10.109375 L 12.828125 -12.984375 C 12.390625 -13.328125 11.988281 -13.554688 11.625 -13.671875 C 11.269531 -13.796875 10.875 -13.859375 10.4375 -13.859375 C 9.832031 -13.859375 9.238281 -13.632812 8.65625 -13.1875 C 8.082031 -12.75 7.601562 -12.082031 7.21875 -11.1875 C 6.84375 -10.300781 6.65625 -9.179688 6.65625 -7.828125 Z M 6.65625 -7.828125 "/></g></g><g style="fill:#0571d3;fill-opacity:1;"><g transform="translate(202.422691, 124.83361)"><path style="stroke:none" d="M 3.296875 -24.953125 C 3.359375 -25.628906 3.585938 -26.109375 3.984375 -26.390625 C 4.390625 -26.671875 5.109375 -26.8125 6.140625 -26.8125 C 6.898438 -26.8125 7.457031 -26.710938 7.8125 -26.515625 C 8.175781 -26.328125 8.410156 -26.070312 8.515625 -25.75 C 8.617188 -25.4375 8.660156 -25.109375 8.640625 -24.765625 C 8.597656 -24.148438 8.507812 -23.203125 8.375 -21.921875 C 8.25 -20.640625 8.101562 -18.851562 7.9375 -16.5625 C 7.78125 -14.28125 7.644531 -11.328125 7.53125 -7.703125 C 7.507812 -6.546875 7.476562 -5.445312 7.4375 -4.40625 C 7.394531 -3.363281 7.363281 -2.425781 7.34375 -1.59375 C 7.320312 -0.851562 7.109375 -0.347656 6.703125 -0.078125 C 6.296875 0.191406 5.617188 0.328125 4.671875 0.328125 C 3.691406 0.328125 2.988281 0.191406 2.5625 -0.078125 C 2.132812 -0.347656 1.929688 -0.898438 1.953125 -1.734375 C 2.023438 -3.597656 2.097656 -5.515625 2.171875 -7.484375 C 2.242188 -9.453125 2.332031 -11.425781 2.4375 -13.40625 C 2.550781 -15.382812 2.675781 -17.347656 2.8125 -19.296875 C 2.957031 -21.242188 3.117188 -23.128906 3.296875 -24.953125 Z M 3.296875 -24.953125 "/></g></g><g style="fill:#0571d3;fill-opacity:1;"><g transform="translate(212.27262, 124.83361)"><path style="stroke:none" d="M 9.390625 0.125 C 7.890625 0.125 6.609375 -0.125 5.546875 -0.625 C 4.484375 -1.125 3.609375 -1.78125 2.921875 -2.59375 C 2.234375 -3.40625 1.734375 -4.328125 1.421875 -5.359375 C 1.109375 -6.398438 0.953125 -7.441406 0.953125 -8.484375 C 0.953125 -9.640625 1.171875 -10.773438 1.609375 -11.890625 C 2.054688 -13.015625 2.6875 -14.035156 3.5 -14.953125 C 4.320312 -15.878906 5.289062 -16.625 6.40625 -17.1875 C 7.53125 -17.757812 8.773438 -18.046875 10.140625 -18.046875 C 11.359375 -18.046875 12.375 -17.851562 13.1875 -17.46875 C 14.007812 -17.09375 14.628906 -16.554688 15.046875 -15.859375 C 15.472656 -15.160156 15.6875 -14.332031 15.6875 -13.375 C 15.6875 -12.351562 15.46875 -11.453125 15.03125 -10.671875 C 14.601562 -9.890625 13.988281 -9.222656 13.1875 -8.671875 C 12.207031 -8.023438 11.160156 -7.539062 10.046875 -7.21875 C 8.941406 -6.90625 7.734375 -6.707031 6.421875 -6.625 C 6.617188 -6.164062 6.867188 -5.742188 7.171875 -5.359375 C 7.484375 -4.984375 7.859375 -4.675781 8.296875 -4.4375 C 8.742188 -4.195312 9.273438 -4.078125 9.890625 -4.078125 C 10.648438 -4.078125 11.332031 -4.265625 11.9375 -4.640625 C 12.550781 -5.023438 13.085938 -5.46875 13.546875 -5.96875 C 13.804688 -6.25 14.03125 -6.425781 14.21875 -6.5 C 14.414062 -6.582031 14.59375 -6.625 14.75 -6.625 C 15.050781 -6.625 15.351562 -6.515625 15.65625 -6.296875 C 15.957031 -6.078125 16.234375 -5.816406 16.484375 -5.515625 C 16.734375 -5.210938 16.882812 -4.894531 16.9375 -4.5625 C 17.019531 -4.257812 16.988281 -3.957031 16.84375 -3.65625 C 16.707031 -3.351562 16.5625 -3.125 16.40625 -2.96875 C 15.601562 -2.09375 14.597656 -1.359375 13.390625 -0.765625 C 12.179688 -0.171875 10.847656 0.125 9.390625 0.125 Z M 6.203125 -10.171875 C 6.785156 -10.222656 7.265625 -10.285156 7.640625 -10.359375 C 8.023438 -10.429688 8.476562 -10.578125 9 -10.796875 C 9.519531 -10.992188 9.960938 -11.296875 10.328125 -11.703125 C 10.703125 -12.117188 10.890625 -12.613281 10.890625 -13.1875 C 10.890625 -13.394531 10.84375 -13.585938 10.75 -13.765625 C 10.65625 -13.941406 10.507812 -14.082031 10.3125 -14.1875 C 10.113281 -14.300781 9.863281 -14.359375 9.5625 -14.359375 C 9.144531 -14.359375 8.738281 -14.222656 8.34375 -13.953125 C 7.957031 -13.679688 7.617188 -13.328125 7.328125 -12.890625 C 7.035156 -12.453125 6.789062 -11.992188 6.59375 -11.515625 C 6.394531 -11.035156 6.265625 -10.585938 6.203125 -10.171875 Z M 6.203125 -10.171875 "/></g></g><g style="fill:#0571d3;fill-opacity:1;"><g transform="translate(229.982952, 124.83361)"><path style="stroke:none" d="M 3.984375 -8.15625 C 3.367188 -8.132812 2.90625 -8.3125 2.59375 -8.6875 C 2.28125 -9.070312 2.125 -9.582031 2.125 -10.21875 C 2.125 -11.0625 2.289062 -11.679688 2.625 -12.078125 C 2.957031 -12.484375 3.410156 -12.695312 3.984375 -12.71875 C 4.304688 -12.738281 4.8125 -12.753906 5.5 -12.765625 C 6.1875 -12.773438 6.914062 -12.785156 7.6875 -12.796875 C 8.457031 -12.816406 9.160156 -12.828125 9.796875 -12.828125 C 10.441406 -12.828125 10.882812 -12.8125 11.125 -12.78125 C 11.625 -12.757812 12.023438 -12.570312 12.328125 -12.21875 C 12.628906 -11.863281 12.78125 -11.398438 12.78125 -10.828125 C 12.78125 -10.109375 12.632812 -9.488281 12.34375 -8.96875 C 12.050781 -8.445312 11.644531 -8.195312 11.125 -8.21875 C 10.882812 -8.238281 10.441406 -8.25 9.796875 -8.25 C 9.160156 -8.25 8.457031 -8.242188 7.6875 -8.234375 C 6.914062 -8.222656 6.1875 -8.210938 5.5 -8.203125 C 4.8125 -8.191406 4.304688 -8.175781 3.984375 -8.15625 Z M 3.984375 -8.15625 "/></g></g><g style="fill:#0571d3;fill-opacity:1;"><g transform="translate(245.116653, 124.83361)"><path style="stroke:none" d="M 9.390625 0.125 C 7.890625 0.125 6.609375 -0.125 5.546875 -0.625 C 4.484375 -1.125 3.609375 -1.78125 2.921875 -2.59375 C 2.234375 -3.40625 1.734375 -4.328125 1.421875 -5.359375 C 1.109375 -6.398438 0.953125 -7.441406 0.953125 -8.484375 C 0.953125 -9.640625 1.171875 -10.773438 1.609375 -11.890625 C 2.054688 -13.015625 2.6875 -14.035156 3.5 -14.953125 C 4.320312 -15.878906 5.289062 -16.625 6.40625 -17.1875 C 7.53125 -17.757812 8.773438 -18.046875 10.140625 -18.046875 C 11.359375 -18.046875 12.375 -17.851562 13.1875 -17.46875 C 14.007812 -17.09375 14.628906 -16.554688 15.046875 -15.859375 C 15.472656 -15.160156 15.6875 -14.332031 15.6875 -13.375 C 15.6875 -12.351562 15.46875 -11.453125 15.03125 -10.671875 C 14.601562 -9.890625 13.988281 -9.222656 13.1875 -8.671875 C 12.207031 -8.023438 11.160156 -7.539062 10.046875 -7.21875 C 8.941406 -6.90625 7.734375 -6.707031 6.421875 -6.625 C 6.617188 -6.164062 6.867188 -5.742188 7.171875 -5.359375 C 7.484375 -4.984375 7.859375 -4.675781 8.296875 -4.4375 C 8.742188 -4.195312 9.273438 -4.078125 9.890625 -4.078125 C 10.648438 -4.078125 11.332031 -4.265625 11.9375 -4.640625 C 12.550781 -5.023438 13.085938 -5.46875 13.546875 -5.96875 C 13.804688 -6.25 14.03125 -6.425781 14.21875 -6.5 C 14.414062 -6.582031 14.59375 -6.625 14.75 -6.625 C 15.050781 -6.625 15.351562 -6.515625 15.65625 -6.296875 C 15.957031 -6.078125 16.234375 -5.816406 16.484375 -5.515625 C 16.734375 -5.210938 16.882812 -4.894531 16.9375 -4.5625 C 17.019531 -4.257812 16.988281 -3.957031 16.84375 -3.65625 C 16.707031 -3.351562 16.5625 -3.125 16.40625 -2.96875 C 15.601562 -2.09375 14.597656 -1.359375 13.390625 -0.765625 C 12.179688 -0.171875 10.847656 0.125 9.390625 0.125 Z M 6.203125 -10.171875 C 6.785156 -10.222656 7.265625 -10.285156 7.640625 -10.359375 C 8.023438 -10.429688 8.476562 -10.578125 9 -10.796875 C 9.519531 -10.992188 9.960938 -11.296875 10.328125 -11.703125 C 10.703125 -12.117188 10.890625 -12.613281 10.890625 -13.1875 C 10.890625 -13.394531 10.84375 -13.585938 10.75 -13.765625 C 10.65625 -13.941406 10.507812 -14.082031 10.3125 -14.1875 C 10.113281 -14.300781 9.863281 -14.359375 9.5625 -14.359375 C 9.144531 -14.359375 8.738281 -14.222656 8.34375 -13.953125 C 7.957031 -13.679688 7.617188 -13.328125 7.328125 -12.890625 C 7.035156 -12.453125 6.789062 -11.992188 6.59375 -11.515625 C 6.394531 -11.035156 6.265625 -10.585938 6.203125 -10.171875 Z M 6.203125 -10.171875 "/></g></g><g style="fill:#0571d3;fill-opacity:1;"><g transform="translate(262.729123, 124.83361)"><path style="stroke:none" d="M 1.140625 -7.640625 C 1.140625 -8.960938 1.332031 -10.242188 1.71875 -11.484375 C 2.113281 -12.722656 2.675781 -13.832031 3.40625 -14.8125 C 4.132812 -15.789062 5.023438 -16.566406 6.078125 -17.140625 C 7.140625 -17.722656 8.34375 -18.015625 9.6875 -18.015625 C 10.539062 -18.015625 11.285156 -17.875 11.921875 -17.59375 C 12.566406 -17.320312 13.140625 -16.9375 13.640625 -16.4375 C 13.742188 -16.914062 13.925781 -17.304688 14.1875 -17.609375 C 14.445312 -17.921875 14.914062 -18.078125 15.59375 -18.078125 C 16.375 -18.078125 17.054688 -17.882812 17.640625 -17.5 C 18.234375 -17.125 18.519531 -16.640625 18.5 -16.046875 C 18.476562 -15.460938 18.378906 -14.664062 18.203125 -13.65625 C 18.023438 -12.644531 17.875 -11.648438 17.75 -10.671875 C 17.707031 -10.367188 17.644531 -9.976562 17.5625 -9.5 C 17.488281 -9.019531 17.425781 -8.546875 17.375 -8.078125 C 17.320312 -7.609375 17.285156 -7.210938 17.265625 -6.890625 C 17.234375 -6.554688 17.21875 -6.144531 17.21875 -5.65625 C 17.21875 -5.164062 17.285156 -4.734375 17.421875 -4.359375 C 17.554688 -3.992188 17.773438 -3.8125 18.078125 -3.8125 C 18.242188 -3.8125 18.394531 -3.851562 18.53125 -3.9375 C 18.664062 -4.03125 18.796875 -4.15625 18.921875 -4.3125 C 19.140625 -4.457031 19.328125 -4.578125 19.484375 -4.671875 C 19.648438 -4.773438 19.863281 -4.828125 20.125 -4.828125 C 20.4375 -4.828125 20.71875 -4.722656 20.96875 -4.515625 C 21.21875 -4.304688 21.410156 -4.03125 21.546875 -3.6875 C 21.691406 -3.34375 21.695312 -2.953125 21.5625 -2.515625 C 21.476562 -2.097656 21.195312 -1.671875 20.71875 -1.234375 C 20.238281 -0.804688 19.675781 -0.441406 19.03125 -0.140625 C 18.394531 0.148438 17.757812 0.296875 17.125 0.296875 C 16.5 0.296875 15.921875 0.160156 15.390625 -0.109375 C 14.867188 -0.378906 14.429688 -0.75 14.078125 -1.21875 C 13.722656 -1.6875 13.476562 -2.238281 13.34375 -2.875 C 12.78125 -2.019531 12.035156 -1.3125 11.109375 -0.75 C 10.179688 -0.1875 9.144531 0.09375 8 0.09375 C 6.5625 0.09375 5.328125 -0.238281 4.296875 -0.90625 C 3.273438 -1.582031 2.492188 -2.503906 1.953125 -3.671875 C 1.410156 -4.835938 1.140625 -6.160156 1.140625 -7.640625 Z M 6.65625 -7.859375 C 6.65625 -7.160156 6.726562 -6.535156 6.875 -5.984375 C 7.03125 -5.429688 7.265625 -4.988281 7.578125 -4.65625 C 7.898438 -4.332031 8.320312 -4.171875 8.84375 -4.171875 C 9.28125 -4.171875 9.660156 -4.273438 9.984375 -4.484375 C 10.304688 -4.691406 10.597656 -4.972656 10.859375 -5.328125 C 11.117188 -5.691406 11.328125 -6.113281 11.484375 -6.59375 C 11.660156 -7.09375 11.8125 -7.613281 11.9375 -8.15625 C 12.070312 -8.695312 12.179688 -9.25 12.265625 -9.8125 C 12.347656 -10.382812 12.421875 -10.941406 12.484375 -11.484375 C 12.554688 -12.023438 12.613281 -12.554688 12.65625 -13.078125 C 12.351562 -13.359375 12.003906 -13.582031 11.609375 -13.75 C 11.222656 -13.914062 10.8125 -14 10.375 -14 C 9.789062 -14 9.269531 -13.835938 8.8125 -13.515625 C 8.351562 -13.203125 7.957031 -12.765625 7.625 -12.203125 C 7.300781 -11.640625 7.054688 -10.988281 6.890625 -10.25 C 6.734375 -9.507812 6.65625 -8.710938 6.65625 -7.859375 Z M 6.65625 -7.859375 "/></g></g><g style="fill:#0571d3;fill-opacity:1;"><g transform="translate(284.646882, 124.83361)"><path style="stroke:none" d="M 2.421875 -15.859375 C 2.441406 -16.597656 2.671875 -17.132812 3.109375 -17.46875 C 3.554688 -17.800781 4.328125 -17.96875 5.421875 -17.96875 C 6.265625 -17.96875 6.863281 -17.820312 7.21875 -17.53125 C 7.582031 -17.238281 7.765625 -16.851562 7.765625 -16.375 C 7.765625 -16.25 7.765625 -16.09375 7.765625 -15.90625 C 7.765625 -15.71875 7.757812 -15.507812 7.75 -15.28125 C 7.738281 -15.050781 7.710938 -14.785156 7.671875 -14.484375 C 8.210938 -15.566406 8.894531 -16.425781 9.71875 -17.0625 C 10.550781 -17.695312 11.476562 -18.015625 12.5 -18.015625 C 12.84375 -18.015625 13.289062 -17.960938 13.84375 -17.859375 C 14.40625 -17.765625 14.988281 -17.53125 15.59375 -17.15625 C 15.851562 -17.007812 16.113281 -16.742188 16.375 -16.359375 C 16.632812 -15.984375 16.691406 -15.414062 16.546875 -14.65625 C 16.429688 -13.914062 16.179688 -13.359375 15.796875 -12.984375 C 15.421875 -12.617188 14.972656 -12.4375 14.453125 -12.4375 C 14.234375 -12.4375 14.03125 -12.46875 13.84375 -12.53125 C 13.664062 -12.59375 13.476562 -12.664062 13.28125 -12.75 C 13.0625 -12.863281 12.8125 -12.96875 12.53125 -13.0625 C 12.25 -13.164062 11.910156 -13.21875 11.515625 -13.21875 C 10.472656 -13.21875 9.625 -12.726562 8.96875 -11.75 C 8.320312 -10.769531 7.820312 -9.550781 7.46875 -8.09375 C 7.445312 -7.351562 7.429688 -6.660156 7.421875 -6.015625 C 7.410156 -5.378906 7.398438 -4.785156 7.390625 -4.234375 C 7.378906 -3.691406 7.367188 -3.1875 7.359375 -2.71875 C 7.347656 -2.25 7.34375 -1.832031 7.34375 -1.46875 C 7.34375 -0.988281 7.1875 -0.613281 6.875 -0.34375 C 6.570312 -0.0703125 6.226562 0.117188 5.84375 0.234375 C 5.46875 0.359375 5.148438 0.421875 4.890625 0.421875 C 4.003906 0.421875 3.335938 0.28125 2.890625 0 C 2.441406 -0.28125 2.148438 -0.65625 2.015625 -1.125 C 1.890625 -1.59375 1.828125 -2.097656 1.828125 -2.640625 C 1.828125 -3.078125 1.84375 -3.617188 1.875 -4.265625 C 1.90625 -4.921875 1.953125 -5.570312 2.015625 -6.21875 C 2.085938 -6.875 2.15625 -7.421875 2.21875 -7.859375 Z M 2.421875 -15.859375 "/></g></g><g style="fill:#0571d3;fill-opacity:1;"><g transform="translate(301.73753, 124.83361)"><path style="stroke:none" d="M 3.6875 -20.75 C 3.75 -21.25 3.945312 -21.644531 4.28125 -21.9375 C 4.625 -22.226562 5.207031 -22.375 6.03125 -22.375 C 6.570312 -22.375 7.09375 -22.3125 7.59375 -22.1875 C 8.101562 -22.070312 8.5 -21.878906 8.78125 -21.609375 C 9.0625 -21.335938 9.15625 -20.953125 9.0625 -20.453125 C 8.9375 -19.328125 8.804688 -18.160156 8.671875 -16.953125 C 8.546875 -15.742188 8.445312 -14.503906 8.375 -13.234375 C 8.3125 -11.960938 8.304688 -10.648438 8.359375 -9.296875 C 8.398438 -7.898438 8.476562 -6.847656 8.59375 -6.140625 C 8.71875 -5.441406 8.863281 -4.976562 9.03125 -4.75 C 9.207031 -4.519531 9.382812 -4.40625 9.5625 -4.40625 C 9.757812 -4.40625 9.976562 -4.492188 10.21875 -4.671875 C 10.457031 -4.859375 10.6875 -5.078125 10.90625 -5.328125 C 11.132812 -5.578125 11.316406 -5.78125 11.453125 -5.9375 C 11.578125 -6.09375 11.734375 -6.226562 11.921875 -6.34375 C 12.109375 -6.46875 12.320312 -6.53125 12.5625 -6.53125 C 12.882812 -6.53125 13.21875 -6.441406 13.5625 -6.265625 C 13.914062 -6.085938 14.21875 -5.84375 14.46875 -5.53125 C 14.71875 -5.21875 14.84375 -4.851562 14.84375 -4.4375 C 14.84375 -4.28125 14.796875 -4.019531 14.703125 -3.65625 C 14.617188 -3.300781 14.316406 -2.863281 13.796875 -2.34375 C 13.210938 -1.757812 12.5625 -1.269531 11.84375 -0.875 C 11.125 -0.488281 10.414062 -0.203125 9.71875 -0.015625 C 9.019531 0.171875 8.398438 0.265625 7.859375 0.265625 C 6.472656 0.265625 5.441406 -0.09375 4.765625 -0.8125 C 4.085938 -1.53125 3.609375 -2.507812 3.328125 -3.75 C 3.128906 -4.707031 3.003906 -5.640625 2.953125 -6.546875 C 2.898438 -7.460938 2.875 -8.410156 2.875 -9.390625 C 2.875 -10.722656 2.898438 -12.007812 2.953125 -13.25 C 3.003906 -14.488281 3.085938 -15.722656 3.203125 -16.953125 C 3.328125 -18.179688 3.488281 -19.445312 3.6875 -20.75 Z M 2.09375 -13.609375 C 1.675781 -13.585938 1.320312 -13.738281 1.03125 -14.0625 C 0.738281 -14.382812 0.59375 -14.875 0.59375 -15.53125 C 0.59375 -16.15625 0.738281 -16.617188 1.03125 -16.921875 C 1.320312 -17.234375 1.675781 -17.398438 2.09375 -17.421875 C 2.65625 -17.460938 3.359375 -17.5 4.203125 -17.53125 C 5.054688 -17.5625 5.96875 -17.582031 6.9375 -17.59375 C 7.90625 -17.613281 8.890625 -17.628906 9.890625 -17.640625 C 10.890625 -17.648438 11.832031 -17.65625 12.71875 -17.65625 C 13.09375 -17.65625 13.441406 -17.5 13.765625 -17.1875 C 14.085938 -16.882812 14.25 -16.363281 14.25 -15.625 C 14.25 -15.019531 14.082031 -14.566406 13.75 -14.265625 C 13.414062 -13.972656 13.070312 -13.828125 12.71875 -13.828125 C 11.8125 -13.828125 10.914062 -13.820312 10.03125 -13.8125 C 9.144531 -13.800781 8.265625 -13.789062 7.390625 -13.78125 C 6.523438 -13.769531 5.648438 -13.75 4.765625 -13.71875 C 3.890625 -13.6875 3 -13.648438 2.09375 -13.609375 Z M 2.09375 -13.609375 "/></g></g><g style="fill:#0571d3;fill-opacity:1;"><g transform="translate(317.164766, 124.83361)"><path style="stroke:none" d="M 2.453125 -24.984375 C 2.472656 -25.679688 2.695312 -26.160156 3.125 -26.421875 C 3.5625 -26.679688 4.207031 -26.8125 5.0625 -26.8125 C 5.945312 -26.8125 6.566406 -26.628906 6.921875 -26.265625 C 7.285156 -25.910156 7.46875 -25.507812 7.46875 -25.0625 C 7.46875 -24.625 7.460938 -24.179688 7.453125 -23.734375 C 7.441406 -23.285156 7.4375 -22.726562 7.4375 -22.0625 C 7.4375 -21.40625 7.429688 -20.507812 7.421875 -19.375 C 7.410156 -18.25 7.394531 -16.78125 7.375 -14.96875 C 7.8125 -15.601562 8.289062 -16.144531 8.8125 -16.59375 C 9.332031 -17.039062 9.910156 -17.378906 10.546875 -17.609375 C 11.191406 -17.847656 11.90625 -17.96875 12.6875 -17.96875 C 13.945312 -17.96875 14.9375 -17.710938 15.65625 -17.203125 C 16.375 -16.691406 16.898438 -16.046875 17.234375 -15.265625 C 17.578125 -14.484375 17.796875 -13.664062 17.890625 -12.8125 C 17.992188 -11.96875 18.054688 -11.207031 18.078125 -10.53125 C 18.117188 -8.925781 18.085938 -7.585938 17.984375 -6.515625 C 17.890625 -5.453125 17.84375 -4.585938 17.84375 -3.921875 C 17.84375 -3.328125 17.863281 -2.804688 17.90625 -2.359375 C 17.945312 -1.921875 17.984375 -1.523438 18.015625 -1.171875 C 18.035156 -0.753906 17.832031 -0.390625 17.40625 -0.078125 C 16.976562 0.234375 16.285156 0.390625 15.328125 0.390625 C 14.460938 0.390625 13.851562 0.25 13.5 -0.03125 C 13.15625 -0.3125 12.953125 -0.78125 12.890625 -1.4375 C 12.847656 -1.820312 12.832031 -2.347656 12.84375 -3.015625 C 12.851562 -3.679688 12.867188 -4.394531 12.890625 -5.15625 C 12.910156 -5.914062 12.9375 -6.660156 12.96875 -7.390625 C 13 -8.117188 13.015625 -8.753906 13.015625 -9.296875 C 13.015625 -10.734375 12.90625 -11.738281 12.6875 -12.3125 C 12.46875 -12.894531 12.015625 -13.1875 11.328125 -13.1875 C 10.847656 -13.1875 10.363281 -13.015625 9.875 -12.671875 C 9.382812 -12.335938 8.9375 -11.890625 8.53125 -11.328125 C 8.125 -10.773438 7.800781 -10.15625 7.5625 -9.46875 C 7.5 -8.070312 7.453125 -6.707031 7.421875 -5.375 C 7.390625 -4.050781 7.351562 -2.867188 7.3125 -1.828125 C 7.289062 -1.128906 7.046875 -0.632812 6.578125 -0.34375 C 6.109375 -0.0507812 5.445312 0.09375 4.59375 0.09375 C 3.726562 0.09375 3.085938 -0.046875 2.671875 -0.328125 C 2.265625 -0.609375 2.035156 -0.96875 1.984375 -1.40625 C 1.898438 -1.925781 1.859375 -2.472656 1.859375 -3.046875 C 1.859375 -3.628906 1.867188 -4.191406 1.890625 -4.734375 C 1.929688 -5.597656 1.988281 -6.429688 2.0625 -7.234375 C 2.144531 -8.046875 2.273438 -8.894531 2.453125 -9.78125 C 2.429688 -11.976562 2.40625 -13.863281 2.375 -15.4375 C 2.351562 -17.019531 2.34375 -18.34375 2.34375 -19.40625 C 2.34375 -20.476562 2.347656 -21.359375 2.359375 -22.046875 C 2.367188 -22.742188 2.378906 -23.320312 2.390625 -23.78125 C 2.410156 -24.238281 2.429688 -24.640625 2.453125 -24.984375 Z M 2.453125 -24.984375 "/></g></g><g style="fill:#0571d3;fill-opacity:1;"><g transform="translate(337.228327, 124.83361)"><path style="stroke:none" d=""/></g></g><path style="fill:none;stroke-width:6;stroke-linecap:butt;stroke-linejoin:miter;stroke:#0571d3;stroke-opacity:1;stroke-miterlimit:4;" d="M 2.998391 56.667937 L 2.998391 29.834602 C 2.998391 15.011685 15.014017 3.001267 29.836935 3.001267 L 60.810895 3.001267 C 75.628604 3.001267 87.64423 15.011685 87.64423 29.834602 L 87.64423 56.667937 " transform="matrix(0.75,0,0,0.75,133.309801,50.006862)"/><g style="fill:#0571d3;fill-opacity:1;"><g transform="translate(170.535286, 261.559846)"><path style="stroke:none" d="M 2.734375 -16.046875 C 2.734375 -16.484375 2.863281 -16.84375 3.125 -17.125 C 3.394531 -17.40625 3.734375 -17.625 4.140625 -17.78125 C 4.554688 -17.9375 4.957031 -18.015625 5.34375 -18.015625 C 6.257812 -18.015625 6.945312 -17.847656 7.40625 -17.515625 C 7.863281 -17.191406 8.09375 -16.703125 8.09375 -16.046875 C 8.09375 -14.566406 8.050781 -13.242188 7.96875 -12.078125 C 7.894531 -10.921875 7.804688 -9.800781 7.703125 -8.71875 C 7.609375 -7.644531 7.519531 -6.519531 7.4375 -5.34375 C 7.351562 -4.175781 7.289062 -2.832031 7.25 -1.3125 C 7.21875 -0.695312 6.960938 -0.242188 6.484375 0.046875 C 6.015625 0.335938 5.363281 0.484375 4.53125 0.484375 C 3.769531 0.484375 3.191406 0.375 2.796875 0.15625 C 2.410156 -0.0507812 2.148438 -0.3125 2.015625 -0.625 C 1.890625 -0.945312 1.828125 -1.269531 1.828125 -1.59375 C 1.828125 -1.789062 1.851562 -2.269531 1.90625 -3.03125 C 1.957031 -3.789062 2.023438 -4.722656 2.109375 -5.828125 C 2.203125 -6.941406 2.296875 -8.117188 2.390625 -9.359375 C 2.492188 -10.597656 2.578125 -11.804688 2.640625 -12.984375 C 2.703125 -14.160156 2.734375 -15.179688 2.734375 -16.046875 Z M 2.640625 -23.203125 C 2.640625 -23.804688 2.769531 -24.335938 3.03125 -24.796875 C 3.289062 -25.253906 3.644531 -25.609375 4.09375 -25.859375 C 4.539062 -26.109375 5.035156 -26.234375 5.578125 -26.234375 C 6.515625 -26.234375 7.226562 -26.082031 7.71875 -25.78125 C 8.207031 -25.488281 8.535156 -25.132812 8.703125 -24.71875 C 8.878906 -24.3125 8.96875 -23.925781 8.96875 -23.5625 C 8.96875 -22.644531 8.65625 -21.921875 8.03125 -21.390625 C 7.414062 -20.859375 6.617188 -20.59375 5.640625 -20.59375 C 4.753906 -20.59375 4.03125 -20.8125 3.46875 -21.25 C 2.914062 -21.695312 2.640625 -22.347656 2.640625 -23.203125 Z M 2.640625 -23.203125 "/></g></g><g style="fill:#0571d3;fill-opacity:1;"><g transform="translate(180.580922, 261.559846)"><path style="stroke:none" d="M 2.421875 -15.859375 C 2.441406 -16.597656 2.671875 -17.132812 3.109375 -17.46875 C 3.554688 -17.800781 4.328125 -17.96875 5.421875 -17.96875 C 6.265625 -17.96875 6.863281 -17.820312 7.21875 -17.53125 C 7.582031 -17.238281 7.765625 -16.851562 7.765625 -16.375 C 7.765625 -16.25 7.765625 -16.09375 7.765625 -15.90625 C 7.765625 -15.71875 7.757812 -15.507812 7.75 -15.28125 C 7.738281 -15.050781 7.710938 -14.785156 7.671875 -14.484375 C 8.210938 -15.566406 8.894531 -16.425781 9.71875 -17.0625 C 10.550781 -17.695312 11.476562 -18.015625 12.5 -18.015625 C 12.84375 -18.015625 13.289062 -17.960938 13.84375 -17.859375 C 14.40625 -17.765625 14.988281 -17.53125 15.59375 -17.15625 C 15.851562 -17.007812 16.113281 -16.742188 16.375 -16.359375 C 16.632812 -15.984375 16.691406 -15.414062 16.546875 -14.65625 C 16.429688 -13.914062 16.179688 -13.359375 15.796875 -12.984375 C 15.421875 -12.617188 14.972656 -12.4375 14.453125 -12.4375 C 14.234375 -12.4375 14.03125 -12.46875 13.84375 -12.53125 C 13.664062 -12.59375 13.476562 -12.664062 13.28125 -12.75 C 13.0625 -12.863281 12.8125 -12.96875 12.53125 -13.0625 C 12.25 -13.164062 11.910156 -13.21875 11.515625 -13.21875 C 10.472656 -13.21875 9.625 -12.726562 8.96875 -11.75 C 8.320312 -10.769531 7.820312 -9.550781 7.46875 -8.09375 C 7.445312 -7.351562 7.429688 -6.660156 7.421875 -6.015625 C 7.410156 -5.378906 7.398438 -4.785156 7.390625 -4.234375 C 7.378906 -3.691406 7.367188 -3.1875 7.359375 -2.71875 C 7.347656 -2.25 7.34375 -1.832031 7.34375 -1.46875 C 7.34375 -0.988281 7.1875 -0.613281 6.875 -0.34375 C 6.570312 -0.0703125 6.226562 0.117188 5.84375 0.234375 C 5.46875 0.359375 5.148438 0.421875 4.890625 0.421875 C 4.003906 0.421875 3.335938 0.28125 2.890625 0 C 2.441406 -0.28125 2.148438 -0.65625 2.015625 -1.125 C 1.890625 -1.59375 1.828125 -2.097656 1.828125 -2.640625 C 1.828125 -3.078125 1.84375 -3.617188 1.875 -4.265625 C 1.90625 -4.921875 1.953125 -5.570312 2.015625 -6.21875 C 2.085938 -6.875 2.15625 -7.421875 2.21875 -7.859375 Z M 2.421875 -15.859375 "/></g></g><g style="fill:#0571d3;fill-opacity:1;"><g transform="translate(197.410634, 261.559846)"><path style="stroke:none" d="M 2.421875 -15.859375 C 2.441406 -16.597656 2.671875 -17.132812 3.109375 -17.46875 C 3.554688 -17.800781 4.328125 -17.96875 5.421875 -17.96875 C 6.265625 -17.96875 6.863281 -17.820312 7.21875 -17.53125 C 7.582031 -17.238281 7.765625 -16.851562 7.765625 -16.375 C 7.765625 -16.25 7.765625 -16.09375 7.765625 -15.90625 C 7.765625 -15.71875 7.757812 -15.507812 7.75 -15.28125 C 7.738281 -15.050781 7.710938 -14.785156 7.671875 -14.484375 C 8.210938 -15.566406 8.894531 -16.425781 9.71875 -17.0625 C 10.550781 -17.695312 11.476562 -18.015625 12.5 -18.015625 C 12.84375 -18.015625 13.289062 -17.960938 13.84375 -17.859375 C 14.40625 -17.765625 14.988281 -17.53125 15.59375 -17.15625 C 15.851562 -17.007812 16.113281 -16.742188 16.375 -16.359375 C 16.632812 -15.984375 16.691406 -15.414062 16.546875 -14.65625 C 16.429688 -13.914062 16.179688 -13.359375 15.796875 -12.984375 C 15.421875 -12.617188 14.972656 -12.4375 14.453125 -12.4375 C 14.234375 -12.4375 14.03125 -12.46875 13.84375 -12.53125 C 13.664062 -12.59375 13.476562 -12.664062 13.28125 -12.75 C 13.0625 -12.863281 12.8125 -12.96875 12.53125 -13.0625 C 12.25 -13.164062 11.910156 -13.21875 11.515625 -13.21875 C 10.472656 -13.21875 9.625 -12.726562 8.96875 -11.75 C 8.320312 -10.769531 7.820312 -9.550781 7.46875 -8.09375 C 7.445312 -7.351562 7.429688 -6.660156 7.421875 -6.015625 C 7.410156 -5.378906 7.398438 -4.785156 7.390625 -4.234375 C 7.378906 -3.691406 7.367188 -3.1875 7.359375 -2.71875 C 7.347656 -2.25 7.34375 -1.832031 7.34375 -1.46875 C 7.34375 -0.988281 7.1875 -0.613281 6.875 -0.34375 C 6.570312 -0.0703125 6.226562 0.117188 5.84375 0.234375 C 5.46875 0.359375 5.148438 0.421875 4.890625 0.421875 C 4.003906 0.421875 3.335938 0.28125 2.890625 0 C 2.441406 -0.28125 2.148438 -0.65625 2.015625 -1.125 C 1.890625 -1.59375 1.828125 -2.097656 1.828125 -2.640625 C 1.828125 -3.078125 1.84375 -3.617188 1.875 -4.265625 C 1.90625 -4.921875 1.953125 -5.570312 2.015625 -6.21875 C 2.085938 -6.875 2.15625 -7.421875 2.21875 -7.859375 Z M 2.421875 -15.859375 "/></g></g><g style="fill:#0571d3;fill-opacity:1;"><g transform="translate(214.240345, 261.559846)"><path style="stroke:none" d="M 2.734375 -16.046875 C 2.734375 -16.484375 2.863281 -16.84375 3.125 -17.125 C 3.394531 -17.40625 3.734375 -17.625 4.140625 -17.78125 C 4.554688 -17.9375 4.957031 -18.015625 5.34375 -18.015625 C 6.257812 -18.015625 6.945312 -17.847656 7.40625 -17.515625 C 7.863281 -17.191406 8.09375 -16.703125 8.09375 -16.046875 C 8.09375 -14.566406 8.050781 -13.242188 7.96875 -12.078125 C 7.894531 -10.921875 7.804688 -9.800781 7.703125 -8.71875 C 7.609375 -7.644531 7.519531 -6.519531 7.4375 -5.34375 C 7.351562 -4.175781 7.289062 -2.832031 7.25 -1.3125 C 7.21875 -0.695312 6.960938 -0.242188 6.484375 0.046875 C 6.015625 0.335938 5.363281 0.484375 4.53125 0.484375 C 3.769531 0.484375 3.191406 0.375 2.796875 0.15625 C 2.410156 -0.0507812 2.148438 -0.3125 2.015625 -0.625 C 1.890625 -0.945312 1.828125 -1.269531 1.828125 -1.59375 C 1.828125 -1.789062 1.851562 -2.269531 1.90625 -3.03125 C 1.957031 -3.789062 2.023438 -4.722656 2.109375 -5.828125 C 2.203125 -6.941406 2.296875 -8.117188 2.390625 -9.359375 C 2.492188 -10.597656 2.578125 -11.804688 2.640625 -12.984375 C 2.703125 -14.160156 2.734375 -15.179688 2.734375 -16.046875 Z M 2.640625 -23.203125 C 2.640625 -23.804688 2.769531 -24.335938 3.03125 -24.796875 C 3.289062 -25.253906 3.644531 -25.609375 4.09375 -25.859375 C 4.539062 -26.109375 5.035156 -26.234375 5.578125 -26.234375 C 6.515625 -26.234375 7.226562 -26.082031 7.71875 -25.78125 C 8.207031 -25.488281 8.535156 -25.132812 8.703125 -24.71875 C 8.878906 -24.3125 8.96875 -23.925781 8.96875 -23.5625 C 8.96875 -22.644531 8.65625 -21.921875 8.03125 -21.390625 C 7.414062 -20.859375 6.617188 -20.59375 5.640625 -20.59375 C 4.753906 -20.59375 4.03125 -20.8125 3.46875 -21.25 C 2.914062 -21.695312 2.640625 -22.347656 2.640625 -23.203125 Z M 2.640625 -23.203125 "/></g></g><g style="fill:#0571d3;fill-opacity:1;"><g transform="translate(224.285981, 261.559846)"><path style="stroke:none" d="M 1.078125 -7.890625 C 1.078125 -9.242188 1.300781 -10.53125 1.75 -11.75 C 2.195312 -12.96875 2.820312 -14.046875 3.625 -14.984375 C 4.425781 -15.929688 5.363281 -16.679688 6.4375 -17.234375 C 7.519531 -17.796875 8.691406 -18.078125 9.953125 -18.078125 C 10.597656 -18.078125 11.210938 -18 11.796875 -17.84375 C 12.390625 -17.695312 12.925781 -17.476562 13.40625 -17.1875 C 13.539062 -17.539062 13.757812 -17.769531 14.0625 -17.875 C 14.363281 -17.988281 14.785156 -18.046875 15.328125 -18.046875 C 16.347656 -18.046875 17.050781 -17.953125 17.4375 -17.765625 C 17.820312 -17.578125 18 -17.265625 17.96875 -16.828125 L 17.9375 -15.71875 C 18.113281 -15.53125 18.242188 -15.320312 18.328125 -15.09375 C 18.421875 -14.863281 18.46875 -14.519531 18.46875 -14.0625 C 18.46875 -13.238281 18.28125 -12.609375 17.90625 -12.171875 L 17.90625 -11.484375 C 17.90625 -10.960938 17.914062 -10.421875 17.9375 -9.859375 C 17.957031 -9.304688 17.96875 -8.585938 17.96875 -7.703125 C 17.96875 -6.523438 17.9375 -5.257812 17.875 -3.90625 C 17.8125 -2.5625 17.726562 -1.300781 17.625 -0.125 C 17.445312 1.78125 17 3.425781 16.28125 4.8125 C 15.5625 6.195312 14.628906 7.257812 13.484375 8 C 12.347656 8.738281 11.050781 9.109375 9.59375 9.109375 C 8.976562 9.109375 8.28125 9.003906 7.5 8.796875 C 6.71875 8.585938 5.925781 8.285156 5.125 7.890625 C 4.320312 7.503906 3.5625 7.015625 2.84375 6.421875 C 2.53125 6.140625 2.300781 5.882812 2.15625 5.65625 C 2.019531 5.425781 1.953125 5.160156 1.953125 4.859375 C 1.953125 4.554688 2.066406 4.210938 2.296875 3.828125 C 2.523438 3.453125 2.796875 3.125 3.109375 2.84375 C 3.429688 2.5625 3.734375 2.421875 4.015625 2.421875 C 4.234375 2.421875 4.46875 2.472656 4.71875 2.578125 C 4.96875 2.679688 5.203125 2.8125 5.421875 2.96875 C 5.828125 3.226562 6.238281 3.488281 6.65625 3.75 C 7.070312 4.007812 7.492188 4.21875 7.921875 4.375 C 8.359375 4.539062 8.785156 4.625 9.203125 4.625 C 9.765625 4.625 10.234375 4.484375 10.609375 4.203125 C 10.992188 3.921875 11.316406 3.515625 11.578125 2.984375 C 11.835938 2.453125 12.046875 1.835938 12.203125 1.140625 C 12.359375 0.484375 12.472656 -0.046875 12.546875 -0.453125 C 12.617188 -0.867188 12.6875 -1.234375 12.75 -1.546875 C 12.820312 -1.859375 12.878906 -2.222656 12.921875 -2.640625 C 12.359375 -1.703125 11.660156 -1.003906 10.828125 -0.546875 C 10.003906 -0.0976562 9.0625 0.125 8 0.125 C 6.625 0.125 5.414062 -0.238281 4.375 -0.96875 C 3.332031 -1.695312 2.519531 -2.664062 1.9375 -3.875 C 1.363281 -5.09375 1.078125 -6.429688 1.078125 -7.890625 Z M 9.234375 -4.046875 C 9.816406 -4.046875 10.296875 -4.238281 10.671875 -4.625 C 11.054688 -5.019531 11.363281 -5.5625 11.59375 -6.25 C 11.820312 -6.9375 12.015625 -7.742188 12.171875 -8.671875 C 12.210938 -8.929688 12.25 -9.285156 12.28125 -9.734375 C 12.3125 -10.179688 12.335938 -10.648438 12.359375 -11.140625 C 12.378906 -11.628906 12.394531 -12.0625 12.40625 -12.4375 C 12.425781 -12.820312 12.4375 -13.054688 12.4375 -13.140625 C 12.144531 -13.429688 11.816406 -13.632812 11.453125 -13.75 C 11.097656 -13.875 10.789062 -13.9375 10.53125 -13.9375 C 9.96875 -13.9375 9.445312 -13.78125 8.96875 -13.46875 C 8.488281 -13.164062 8.070312 -12.738281 7.71875 -12.1875 C 7.375 -11.632812 7.101562 -10.992188 6.90625 -10.265625 C 6.71875 -9.535156 6.625 -8.753906 6.625 -7.921875 C 6.625 -7.117188 6.738281 -6.421875 6.96875 -5.828125 C 7.195312 -5.242188 7.503906 -4.800781 7.890625 -4.5 C 8.285156 -4.195312 8.734375 -4.046875 9.234375 -4.046875 Z M 9.234375 -4.046875 "/></g></g><g style="fill:#0571d3;fill-opacity:1;"><g transform="translate(244.148967, 261.559846)"><path style="stroke:none" d="M 1.140625 -7.640625 C 1.140625 -8.960938 1.332031 -10.242188 1.71875 -11.484375 C 2.113281 -12.722656 2.675781 -13.832031 3.40625 -14.8125 C 4.132812 -15.789062 5.023438 -16.566406 6.078125 -17.140625 C 7.140625 -17.722656 8.34375 -18.015625 9.6875 -18.015625 C 10.539062 -18.015625 11.285156 -17.875 11.921875 -17.59375 C 12.566406 -17.320312 13.140625 -16.9375 13.640625 -16.4375 C 13.742188 -16.914062 13.925781 -17.304688 14.1875 -17.609375 C 14.445312 -17.921875 14.914062 -18.078125 15.59375 -18.078125 C 16.375 -18.078125 17.054688 -17.882812 17.640625 -17.5 C 18.234375 -17.125 18.519531 -16.640625 18.5 -16.046875 C 18.476562 -15.460938 18.378906 -14.664062 18.203125 -13.65625 C 18.023438 -12.644531 17.875 -11.648438 17.75 -10.671875 C 17.707031 -10.367188 17.644531 -9.976562 17.5625 -9.5 C 17.488281 -9.019531 17.425781 -8.546875 17.375 -8.078125 C 17.320312 -7.609375 17.285156 -7.210938 17.265625 -6.890625 C 17.234375 -6.554688 17.21875 -6.144531 17.21875 -5.65625 C 17.21875 -5.164062 17.285156 -4.734375 17.421875 -4.359375 C 17.554688 -3.992188 17.773438 -3.8125 18.078125 -3.8125 C 18.242188 -3.8125 18.394531 -3.851562 18.53125 -3.9375 C 18.664062 -4.03125 18.796875 -4.15625 18.921875 -4.3125 C 19.140625 -4.457031 19.328125 -4.578125 19.484375 -4.671875 C 19.648438 -4.773438 19.863281 -4.828125 20.125 -4.828125 C 20.4375 -4.828125 20.71875 -4.722656 20.96875 -4.515625 C 21.21875 -4.304688 21.410156 -4.03125 21.546875 -3.6875 C 21.691406 -3.34375 21.695312 -2.953125 21.5625 -2.515625 C 21.476562 -2.097656 21.195312 -1.671875 20.71875 -1.234375 C 20.238281 -0.804688 19.675781 -0.441406 19.03125 -0.140625 C 18.394531 0.148438 17.757812 0.296875 17.125 0.296875 C 16.5 0.296875 15.921875 0.160156 15.390625 -0.109375 C 14.867188 -0.378906 14.429688 -0.75 14.078125 -1.21875 C 13.722656 -1.6875 13.476562 -2.238281 13.34375 -2.875 C 12.78125 -2.019531 12.035156 -1.3125 11.109375 -0.75 C 10.179688 -0.1875 9.144531 0.09375 8 0.09375 C 6.5625 0.09375 5.328125 -0.238281 4.296875 -0.90625 C 3.273438 -1.582031 2.492188 -2.503906 1.953125 -3.671875 C 1.410156 -4.835938 1.140625 -6.160156 1.140625 -7.640625 Z M 6.65625 -7.859375 C 6.65625 -7.160156 6.726562 -6.535156 6.875 -5.984375 C 7.03125 -5.429688 7.265625 -4.988281 7.578125 -4.65625 C 7.898438 -4.332031 8.320312 -4.171875 8.84375 -4.171875 C 9.28125 -4.171875 9.660156 -4.273438 9.984375 -4.484375 C 10.304688 -4.691406 10.597656 -4.972656 10.859375 -5.328125 C 11.117188 -5.691406 11.328125 -6.113281 11.484375 -6.59375 C 11.660156 -7.09375 11.8125 -7.613281 11.9375 -8.15625 C 12.070312 -8.695312 12.179688 -9.25 12.265625 -9.8125 C 12.347656 -10.382812 12.421875 -10.941406 12.484375 -11.484375 C 12.554688 -12.023438 12.613281 -12.554688 12.65625 -13.078125 C 12.351562 -13.359375 12.003906 -13.582031 11.609375 -13.75 C 11.222656 -13.914062 10.8125 -14 10.375 -14 C 9.789062 -14 9.269531 -13.835938 8.8125 -13.515625 C 8.351562 -13.203125 7.957031 -12.765625 7.625 -12.203125 C 7.300781 -11.640625 7.054688 -10.988281 6.890625 -10.25 C 6.734375 -9.507812 6.65625 -8.710938 6.65625 -7.859375 Z M 6.65625 -7.859375 "/></g></g><g style="fill:#0571d3;fill-opacity:1;"><g transform="translate(266.197203, 261.559846)"><path style="stroke:none" d="M 3.6875 -20.75 C 3.75 -21.25 3.945312 -21.644531 4.28125 -21.9375 C 4.625 -22.226562 5.207031 -22.375 6.03125 -22.375 C 6.570312 -22.375 7.09375 -22.3125 7.59375 -22.1875 C 8.101562 -22.070312 8.5 -21.878906 8.78125 -21.609375 C 9.0625 -21.335938 9.15625 -20.953125 9.0625 -20.453125 C 8.9375 -19.328125 8.804688 -18.160156 8.671875 -16.953125 C 8.546875 -15.742188 8.445312 -14.503906 8.375 -13.234375 C 8.3125 -11.960938 8.304688 -10.648438 8.359375 -9.296875 C 8.398438 -7.898438 8.476562 -6.847656 8.59375 -6.140625 C 8.71875 -5.441406 8.863281 -4.976562 9.03125 -4.75 C 9.207031 -4.519531 9.382812 -4.40625 9.5625 -4.40625 C 9.757812 -4.40625 9.976562 -4.492188 10.21875 -4.671875 C 10.457031 -4.859375 10.6875 -5.078125 10.90625 -5.328125 C 11.132812 -5.578125 11.316406 -5.78125 11.453125 -5.9375 C 11.578125 -6.09375 11.734375 -6.226562 11.921875 -6.34375 C 12.109375 -6.46875 12.320312 -6.53125 12.5625 -6.53125 C 12.882812 -6.53125 13.21875 -6.441406 13.5625 -6.265625 C 13.914062 -6.085938 14.21875 -5.84375 14.46875 -5.53125 C 14.71875 -5.21875 14.84375 -4.851562 14.84375 -4.4375 C 14.84375 -4.28125 14.796875 -4.019531 14.703125 -3.65625 C 14.617188 -3.300781 14.316406 -2.863281 13.796875 -2.34375 C 13.210938 -1.757812 12.5625 -1.269531 11.84375 -0.875 C 11.125 -0.488281 10.414062 -0.203125 9.71875 -0.015625 C 9.019531 0.171875 8.398438 0.265625 7.859375 0.265625 C 6.472656 0.265625 5.441406 -0.09375 4.765625 -0.8125 C 4.085938 -1.53125 3.609375 -2.507812 3.328125 -3.75 C 3.128906 -4.707031 3.003906 -5.640625 2.953125 -6.546875 C 2.898438 -7.460938 2.875 -8.410156 2.875 -9.390625 C 2.875 -10.722656 2.898438 -12.007812 2.953125 -13.25 C 3.003906 -14.488281 3.085938 -15.722656 3.203125 -16.953125 C 3.328125 -18.179688 3.488281 -19.445312 3.6875 -20.75 Z M 2.09375 -13.609375 C 1.675781 -13.585938 1.320312 -13.738281 1.03125 -14.0625 C 0.738281 -14.382812 0.59375 -14.875 0.59375 -15.53125 C 0.59375 -16.15625 0.738281 -16.617188 1.03125 -16.921875 C 1.320312 -17.234375 1.675781 -17.398438 2.09375 -17.421875 C 2.65625 -17.460938 3.359375 -17.5 4.203125 -17.53125 C 5.054688 -17.5625 5.96875 -17.582031 6.9375 -17.59375 C 7.90625 -17.613281 8.890625 -17.628906 9.890625 -17.640625 C 10.890625 -17.648438 11.832031 -17.65625 12.71875 -17.65625 C 13.09375 -17.65625 13.441406 -17.5 13.765625 -17.1875 C 14.085938 -16.882812 14.25 -16.363281 14.25 -15.625 C 14.25 -15.019531 14.082031 -14.566406 13.75 -14.265625 C 13.414062 -13.972656 13.070312 -13.828125 12.71875 -13.828125 C 11.8125 -13.828125 10.914062 -13.820312 10.03125 -13.8125 C 9.144531 -13.800781 8.265625 -13.789062 7.390625 -13.78125 C 6.523438 -13.769531 5.648438 -13.75 4.765625 -13.71875 C 3.890625 -13.6875 3 -13.648438 2.09375 -13.609375 Z M 2.09375 -13.609375 "/></g></g><g style="fill:#0571d3;fill-opacity:1;"><g transform="translate(281.885375, 261.559846)"><path style="stroke:none" d="M 2.734375 -16.046875 C 2.734375 -16.484375 2.863281 -16.84375 3.125 -17.125 C 3.394531 -17.40625 3.734375 -17.625 4.140625 -17.78125 C 4.554688 -17.9375 4.957031 -18.015625 5.34375 -18.015625 C 6.257812 -18.015625 6.945312 -17.847656 7.40625 -17.515625 C 7.863281 -17.191406 8.09375 -16.703125 8.09375 -16.046875 C 8.09375 -14.566406 8.050781 -13.242188 7.96875 -12.078125 C 7.894531 -10.921875 7.804688 -9.800781 7.703125 -8.71875 C 7.609375 -7.644531 7.519531 -6.519531 7.4375 -5.34375 C 7.351562 -4.175781 7.289062 -2.832031 7.25 -1.3125 C 7.21875 -0.695312 6.960938 -0.242188 6.484375 0.046875 C 6.015625 0.335938 5.363281 0.484375 4.53125 0.484375 C 3.769531 0.484375 3.191406 0.375 2.796875 0.15625 C 2.410156 -0.0507812 2.148438 -0.3125 2.015625 -0.625 C 1.890625 -0.945312 1.828125 -1.269531 1.828125 -1.59375 C 1.828125 -1.789062 1.851562 -2.269531 1.90625 -3.03125 C 1.957031 -3.789062 2.023438 -4.722656 2.109375 -5.828125 C 2.203125 -6.941406 2.296875 -8.117188 2.390625 -9.359375 C 2.492188 -10.597656 2.578125 -11.804688 2.640625 -12.984375 C 2.703125 -14.160156 2.734375 -15.179688 2.734375 -16.046875 Z M 2.640625 -23.203125 C 2.640625 -23.804688 2.769531 -24.335938 3.03125 -24.796875 C 3.289062 -25.253906 3.644531 -25.609375 4.09375 -25.859375 C 4.539062 -26.109375 5.035156 -26.234375 5.578125 -26.234375 C 6.515625 -26.234375 7.226562 -26.082031 7.71875 -25.78125 C 8.207031 -25.488281 8.535156 -25.132812 8.703125 -24.71875 C 8.878906 -24.3125 8.96875 -23.925781 8.96875 -23.5625 C 8.96875 -22.644531 8.65625 -21.921875 8.03125 -21.390625 C 7.414062 -20.859375 6.617188 -20.59375 5.640625 -20.59375 C 4.753906 -20.59375 4.03125 -20.8125 3.46875 -21.25 C 2.914062 -21.695312 2.640625 -22.347656 2.640625 -23.203125 Z M 2.640625 -23.203125 "/></g></g><g style="fill:#0571d3;fill-opacity:1;"><g transform="translate(291.931011, 261.559846)"><path style="stroke:none" d="M 10.078125 -18.046875 C 10.597656 -18.046875 11.207031 -17.988281 11.90625 -17.875 C 12.601562 -17.769531 13.257812 -17.617188 13.875 -17.421875 C 14.5 -17.222656 14.972656 -16.984375 15.296875 -16.703125 C 16.335938 -15.898438 17.097656 -14.84375 17.578125 -13.53125 C 18.054688 -12.226562 18.296875 -10.835938 18.296875 -9.359375 C 18.296875 -8.160156 18.132812 -6.988281 17.8125 -5.84375 C 17.488281 -4.707031 16.988281 -3.679688 16.3125 -2.765625 C 15.632812 -1.859375 14.785156 -1.128906 13.765625 -0.578125 C 12.742188 -0.0351562 11.535156 0.234375 10.140625 0.234375 C 8.554688 0.234375 7.1875 -0.00390625 6.03125 -0.484375 C 4.882812 -0.960938 3.9375 -1.625 3.1875 -2.46875 C 2.4375 -3.320312 1.878906 -4.289062 1.515625 -5.375 C 1.160156 -6.46875 0.984375 -7.625 0.984375 -8.84375 C 0.984375 -10.019531 1.160156 -11.15625 1.515625 -12.25 C 1.878906 -13.34375 2.4375 -14.316406 3.1875 -15.171875 C 3.9375 -16.035156 4.878906 -16.726562 6.015625 -17.25 C 7.160156 -17.78125 8.515625 -18.046875 10.078125 -18.046875 Z M 6.421875 -9 C 6.421875 -8.195312 6.539062 -7.410156 6.78125 -6.640625 C 7.019531 -5.867188 7.398438 -5.234375 7.921875 -4.734375 C 8.441406 -4.234375 9.109375 -3.984375 9.921875 -3.984375 C 10.460938 -3.984375 10.921875 -4.140625 11.296875 -4.453125 C 11.679688 -4.765625 11.988281 -5.175781 12.21875 -5.6875 C 12.445312 -6.195312 12.609375 -6.75 12.703125 -7.34375 C 12.804688 -7.945312 12.859375 -8.535156 12.859375 -9.109375 C 12.859375 -10.347656 12.695312 -11.320312 12.375 -12.03125 C 12.0625 -12.75 11.644531 -13.296875 11.125 -13.671875 C 10.882812 -13.734375 10.671875 -13.78125 10.484375 -13.8125 C 10.304688 -13.84375 10.109375 -13.859375 9.890625 -13.859375 C 9.253906 -13.859375 8.707031 -13.71875 8.25 -13.4375 C 7.789062 -13.15625 7.429688 -12.785156 7.171875 -12.328125 C 6.910156 -11.867188 6.71875 -11.359375 6.59375 -10.796875 C 6.476562 -10.234375 6.421875 -9.632812 6.421875 -9 Z M 6.421875 -9 "/></g></g><g style="fill:#0571d3;fill-opacity:1;"><g transform="translate(311.109066, 261.559846)"><path style="stroke:none" d="M 2.34375 -16.734375 C 2.457031 -17.328125 2.726562 -17.734375 3.15625 -17.953125 C 3.59375 -18.179688 4.238281 -18.296875 5.09375 -18.296875 C 5.914062 -18.296875 6.503906 -18.132812 6.859375 -17.8125 C 7.222656 -17.488281 7.40625 -17.148438 7.40625 -16.796875 C 7.40625 -16.628906 7.382812 -16.398438 7.34375 -16.109375 C 7.300781 -15.828125 7.257812 -15.515625 7.21875 -15.171875 C 7.1875 -14.828125 7.160156 -14.457031 7.140625 -14.0625 C 7.421875 -14.644531 7.765625 -15.238281 8.171875 -15.84375 C 8.578125 -16.457031 9.132812 -16.960938 9.84375 -17.359375 C 10.5625 -17.765625 11.5 -17.96875 12.65625 -17.96875 C 14.570312 -17.96875 16.007812 -17.273438 16.96875 -15.890625 C 17.925781 -14.515625 18.40625 -12.707031 18.40625 -10.46875 C 18.40625 -9.320312 18.328125 -8.238281 18.171875 -7.21875 C 18.015625 -6.207031 17.859375 -5.226562 17.703125 -4.28125 C 17.554688 -3.34375 17.484375 -2.382812 17.484375 -1.40625 C 17.484375 -0.945312 17.253906 -0.523438 16.796875 -0.140625 C 16.335938 0.234375 15.632812 0.421875 14.6875 0.421875 C 13.75 0.421875 13.085938 0.226562 12.703125 -0.15625 C 12.328125 -0.550781 12.140625 -1.019531 12.140625 -1.5625 C 12.140625 -2.539062 12.222656 -3.445312 12.390625 -4.28125 C 12.566406 -5.125 12.734375 -5.976562 12.890625 -6.84375 C 13.054688 -7.71875 13.140625 -8.695312 13.140625 -9.78125 C 13.140625 -10.65625 13.066406 -11.335938 12.921875 -11.828125 C 12.785156 -12.316406 12.570312 -12.675781 12.28125 -12.90625 C 11.988281 -13.132812 11.632812 -13.25 11.21875 -13.25 C 10.757812 -13.25 10.332031 -13.082031 9.9375 -12.75 C 9.550781 -12.425781 9.195312 -12.003906 8.875 -11.484375 C 8.550781 -10.960938 8.269531 -10.390625 8.03125 -9.765625 C 7.789062 -9.148438 7.582031 -8.546875 7.40625 -7.953125 C 7.46875 -6.765625 7.503906 -5.582031 7.515625 -4.40625 C 7.523438 -3.226562 7.5 -2.179688 7.4375 -1.265625 C 7.414062 -0.816406 7.191406 -0.414062 6.765625 -0.0625 C 6.347656 0.28125 5.671875 0.453125 4.734375 0.453125 C 3.878906 0.453125 3.25 0.320312 2.84375 0.0625 C 2.445312 -0.195312 2.1875 -0.535156 2.0625 -0.953125 C 1.945312 -1.378906 1.890625 -1.832031 1.890625 -2.3125 C 1.890625 -3.070312 1.921875 -3.875 1.984375 -4.71875 C 2.054688 -5.570312 2.175781 -6.398438 2.34375 -7.203125 C 2.300781 -8.398438 2.265625 -9.476562 2.234375 -10.4375 C 2.203125 -11.394531 2.179688 -12.265625 2.171875 -13.046875 C 2.160156 -13.828125 2.164062 -14.519531 2.1875 -15.125 C 2.207031 -15.738281 2.257812 -16.273438 2.34375 -16.734375 Z M 2.34375 -16.734375 "/></g></g></g></svg>